# xmcd CD database file
#
# Track frame offsets:
#	150
#	14650
#	28075
#	44535
#	70922
#	80393
#	98489
#	114152
#	125208
#	147382
#	164618
#	177874
#	194122
#	209280
#	224848
#	239013
#	252970
#	269091
#
# Disc length: 3766 seconds
#
# Revision: 0
# Processed by: cddbd v1.5PL3 Copyright (c) Steve Scherf et al.
# Submitted via: CDex 1.50
#
DISCID=220eb412
DTITLE=Paul Geremia - Love, Murder and Mosquitos
DYEAR=2004
DGENRE=Blues
TTITLE0=Meet Me in the Bottom
TTITLE1=Pony Blues
TTITLE2=Tootie Blues
TTITLE3=Rising River Blues
TTITLE4=This Morning She Was Gone
TTITLE5=New Bully of the Town
TTITLE6=Slow Mama Slow
TTITLE7=Another Friend Like Me
TTITLE8=Evil World Blues
TTITLE9=Mosquito Blues
TTITLE10=Loners' Blues
TTITLE11=Don't Forget It
TTITLE12=Bad Dream Blues
TTITLE13=When Your Way Gets Dark
TTITLE14=Frankie
TTITLE15=Scrapper Scraps
TTITLE16=Keep a Love Light
TTITLE17=I Feel So Good
EXTD=YEAR: 2004
EXTT0=
EXTT1=
EXTT2=
EXTT3=
EXTT4=
EXTT5=
EXTT6=
EXTT7=
EXTT8=
EXTT9=
EXTT10=
EXTT11=
EXTT12=
EXTT13=
EXTT14=
EXTT15=
EXTT16=
EXTT17=
PLAYORDER=
